<?xml version="1.0" encoding="UTF-8" standalone="no"?>
<!DOCTYPE svg PUBLIC "-//W3C//DTD SVG 1.1//EN"
 "http://www.w3.org/Graphics/SVG/1.1/DTD/svg11.dtd">
<!-- Generated by graphviz version 2.40.1 (20161225.0304)
 -->
<!-- Title: G Pages: 1 -->
<svg width="148pt" height="328pt"
 viewBox="0.00 0.00 147.67 328.00" xmlns="http://www.w3.org/2000/svg" xmlns:xlink="http://www.w3.org/1999/xlink">
<g id="graph0" class="graph" transform="scale(1 1) rotate(0) translate(4 324)">
<title>G</title>
<polygon fill="#ffffff" stroke="transparent" points="-4,4 -4,-324 143.67,-324 143.67,4 -4,4"/>
<!-- A0 -->
<g id="node1" class="node">
<title>A0</title>
<ellipse fill="none" stroke="#000000" cx="84.67" cy="-309" rx="11" ry="11"/>
</g>
<!-- A1 -->
<g id="node2" class="node">
<title>A1</title>
<path fill="none" stroke="#000000" d="M116.739,-262C116.739,-262 52.601,-262 52.601,-262 46.601,-262 40.601,-256 40.601,-250 40.601,-250 40.601,-238 40.601,-238 40.601,-232 46.601,-226 52.601,-226 52.601,-226 116.739,-226 116.739,-226 122.739,-226 128.739,-232 128.739,-238 128.739,-238 128.739,-250 128.739,-250 128.739,-256 122.739,-262 116.739,-262"/>
<text text-anchor="middle" x="84.67" y="-241" font-family="Helvetica,sans-Serif" font-size="10.00" fill="#000000">startup&#45;config</text>
</g>
<!-- A0&#45;&gt;A1 -->
<g id="edge1" class="edge">
<title>A0&#45;&gt;A1</title>
<path fill="none" stroke="#000000" d="M84.67,-297.9736C84.67,-290.9446 84.67,-281.49 84.67,-272.4584"/>
<polygon fill="#000000" stroke="#000000" points="84.67,-262.2209 89.1701,-272.2209 84.67,-267.2209 84.6701,-272.2209 84.6701,-272.2209 84.6701,-272.2209 84.67,-267.2209 80.1701,-272.221 84.67,-262.2209 84.67,-262.2209"/>
</g>
<!-- A2 -->
<g id="node3" class="node">
<title>A2</title>
<polygon fill="#d3d3d3" stroke="#000000" stroke-width="4" points="66.67,-185.5 66.67,-189.5 102.67,-189.5 102.67,-185.5 66.67,-185.5"/>
<text text-anchor="middle" x="84.309" y="-187.2" font-family="Helvetica,sans-Serif" font-size="1.00" fill="#000000"> </text>
</g>
<!-- A1&#45;&gt;A2 -->
<g id="edge2" class="edge">
<title>A1&#45;&gt;A2:n</title>
<path fill="none" stroke="#000000" d="M84.67,-225.8333C84.67,-218.1338 84.67,-208.8359 84.67,-199.6816"/>
<polygon fill="#000000" stroke="#000000" points="84.67,-189.5 89.1701,-199.5 84.67,-194.5 84.6701,-199.5 84.6701,-199.5 84.6701,-199.5 84.67,-194.5 80.1701,-199.5 84.67,-189.5 84.67,-189.5"/>
</g>
<!-- A3 -->
<g id="node4" class="node">
<title>A3</title>
<path fill="none" stroke="#000000" d="M117.2991,-149C117.2991,-149 52.0409,-149 52.0409,-149 46.0409,-149 40.0409,-143 40.0409,-137 40.0409,-137 40.0409,-125 40.0409,-125 40.0409,-119 46.0409,-113 52.0409,-113 52.0409,-113 117.2991,-113 117.2991,-113 123.2991,-113 129.2991,-119 129.2991,-125 129.2991,-125 129.2991,-137 129.2991,-137 129.2991,-143 123.2991,-149 117.2991,-149"/>
<text text-anchor="middle" x="84.67" y="-128" font-family="Helvetica,sans-Serif" font-size="10.00" fill="#000000">startup&#45;pouch</text>
</g>
<!-- A2&#45;&gt;A3 -->
<g id="edge3" class="edge">
<title>A2&#45;&gt;A3</title>
<path fill="none" stroke="#000000" d="M84.67,-185.0723C84.67,-180.4782 84.67,-170.0295 84.67,-159.5293"/>
<polygon fill="#000000" stroke="#000000" points="84.67,-149.2269 89.1701,-159.2269 84.67,-154.2269 84.6701,-159.2269 84.6701,-159.2269 84.6701,-159.2269 84.67,-154.2269 80.1701,-159.227 84.67,-149.2269 84.67,-149.2269"/>
</g>
<!-- A4 -->
<g id="node5" class="node">
<title>A4</title>
<polygon fill="#d3d3d3" stroke="#000000" stroke-width="4" points="66.67,-72.5 66.67,-76.5 102.67,-76.5 102.67,-72.5 66.67,-72.5"/>
<text text-anchor="middle" x="84.309" y="-74.2" font-family="Helvetica,sans-Serif" font-size="1.00" fill="#000000"> </text>
</g>
<!-- A3&#45;&gt;A4 -->
<g id="edge4" class="edge">
<title>A3&#45;&gt;A4:n</title>
<path fill="none" stroke="#000000" d="M84.67,-112.8333C84.67,-105.1338 84.67,-95.8359 84.67,-86.6816"/>
<polygon fill="#000000" stroke="#000000" points="84.67,-76.5 89.1701,-86.5 84.67,-81.5 84.6701,-86.5 84.6701,-86.5 84.6701,-86.5 84.67,-81.5 80.1701,-86.5 84.67,-76.5 84.67,-76.5"/>
</g>
<!-- A5 -->
<g id="node6" class="node">
<title>A5</title>
<path fill="none" stroke="#000000" d="M79.5106,-36C79.5106,-36 11.8294,-36 11.8294,-36 5.8294,-36 -.1706,-30 -.1706,-24 -.1706,-24 -.1706,-12 -.1706,-12 -.1706,-6 5.8294,0 11.8294,0 11.8294,0 79.5106,0 79.5106,0 85.5106,0 91.5106,-6 91.5106,-12 91.5106,-12 91.5106,-24 91.5106,-24 91.5106,-30 85.5106,-36 79.5106,-36"/>
<text text-anchor="middle" x="45.67" y="-15" font-family="Helvetica,sans-Serif" font-size="10.00" fill="#000000">startup&#45;syncer</text>
</g>
<!-- A4&#45;&gt;A5 -->
<g id="edge5" class="edge">
<title>A4&#45;&gt;A5</title>
<path fill="none" stroke="#000000" d="M82.9942,-72.0723C79.6249,-67.1911 71.6934,-55.7005 64.0044,-44.5614"/>
<polygon fill="#000000" stroke="#000000" points="58.2514,-36.2269 67.6356,-41.9004 61.0918,-40.3418 63.9322,-44.4567 63.9322,-44.4567 63.9322,-44.4567 61.0918,-40.3418 60.2288,-47.0131 58.2514,-36.2269 58.2514,-36.2269"/>
</g>
<!-- A6 -->
<g id="node7" class="node">
<title>A6</title>
<ellipse fill="none" stroke="#000000" cx="124.67" cy="-18" rx="11" ry="11"/>
<ellipse fill="none" stroke="#000000" cx="124.67" cy="-18" rx="15" ry="15"/>
</g>
<!-- A4&#45;&gt;A6 -->
<g id="edge6" class="edge">
<title>A4&#45;&gt;A6</title>
<path fill="none" stroke="#000000" d="M86.3888,-72.0723C90.4711,-66.306 101.0836,-51.3158 110.1018,-38.5776"/>
<polygon fill="#000000" stroke="#000000" points="115.9906,-30.2597 113.8851,-41.0215 113.1015,-34.3405 110.2124,-38.4213 110.2124,-38.4213 110.2124,-38.4213 113.1015,-34.3405 106.5396,-35.8211 115.9906,-30.2597 115.9906,-30.2597"/>
</g>
</g>
</svg>
