<svg version="1.1" id="Layer_1" xmlns="http://www.w3.org/2000/svg" xmlns:xlink="http://www.w3.org/1999/xlink" x="0px" y="0px"
	 width="22pt" height="22pt" viewBox="0 0 512 512" enable-background="new 0 0 512 512" xml:space="preserve">
<path d="M319.99,64.012c-41.799,0-78.862,20.378-102.26,51.478-8.3011-2.0992-16.739-3.4783-25.739-3.4783-61.901,0-112,50.1-112,112,0,1.8009-0.08904,3.7652,0,5.5652-46.401,13.6-80,55.635-80,106.43,0,61.9,50.099,112,112,112h272c70.701,0,128-57.3,128-128,0-47.9-27.086-88.609-66.087-110.61,0.71235-5.5,2.0858-11.591,2.0858-17.391,0-70.7-57.299-128-128-128zm79.304,81.391c5.2538-0.001,9.9054,2.1682,13.913,6.2609,7.9992,8.1706,8.0168,21.029,0,29.217l-198.94,203.83c-4.0067,4.0927-9.3542,6.2604-14.609,6.2609-5.2609,0.002-10.594-2.1615-14.609-6.2609l-86.953-88.36c-8.0375-8.2098-8.0155-21.726,0-29.913,7.9992-8.1706,20.498-8.196,28.522,0l73.043,73.739,185.04-188.52c4.0063-4.0922,9.3549-6.2598,14.609-6.2609z"/>
</svg>

