<?xml version="1.0" encoding="utf-8"?>
<!-- Generator: Adobe Illustrator 16.0.0, SVG Export Plug-In . SVG Version: 6.00 Build 0)  -->
<!DOCTYPE svg PUBLIC "-//W3C//DTD SVG 1.1//EN" "http://www.w3.org/Graphics/SVG/1.1/DTD/svg11.dtd">
<svg version="1.1" id="Layer_1" xmlns="http://www.w3.org/2000/svg" xmlns:xlink="http://www.w3.org/1999/xlink" x="0px" y="0px"
	 width="512px" height="512px" viewBox="0 0 512 512" enable-background="new 0 0 512 512" xml:space="preserve">
<path d="M446.313,208.813C447.031,203.25,448,197.75,448,192c0-70.688-57.281-128-128-128c-41.813,0-78.594,20.344-101.938,51.375
	C209.656,113.344,201,112,192,112c-61.875,0-112,50.125-112,112c0,1.75,0.438,3.313,0.5,5.063C34.094,242.719,0,285.156,0,336
	c0,61.875,50.125,112,112,112h272c70.719,0,128-57.281,128-128C512,272.063,485.344,230.75,446.313,208.813z M128,288h32
	c0-52.938,43.063-96,96-96c19,0,37.094,5.625,52.344,15.531l-19.438,25.906c-9.766-5.875-21-9.438-32.906-9.438
	c-35.297,0-64,28.688-64,64h32l-48,64L128,288z M352,288c0,52.938-43.063,96-96,96c-19,0-37.078-5.625-52.359-15.531l19.438-25.906
	C232.859,348.438,244.094,352,256,352c35.281,0,64-28.688,64-64h-32l48-64l48,64H352z"/>
</svg>
