<?xml version="1.0" encoding="UTF-8" standalone="no"?>
<!-- Created with Inkscape (http://www.inkscape.org/) -->

<svg
   xmlns:dc="http://purl.org/dc/elements/1.1/"
   xmlns:cc="http://creativecommons.org/ns#"
   xmlns:rdf="http://www.w3.org/1999/02/22-rdf-syntax-ns#"
   xmlns:svg="http://www.w3.org/2000/svg"
   xmlns="http://www.w3.org/2000/svg"
   xmlns:sodipodi="http://sodipodi.sourceforge.net/DTD/sodipodi-0.dtd"
   xmlns:inkscape="http://www.inkscape.org/namespaces/inkscape"
   width="23"
   height="23"
   id="svg2"
   version="1.1"
   inkscape:version="0.48.0 r9654"
   sodipodi:docname="cloud-ok.svg">
  <metadata
     id="metadata7">
    <rdf:RDF>
      <cc:Work
         rdf:about="">
        <dc:format>image/svg+xml</dc:format>
        <dc:type
           rdf:resource="http://purl.org/dc/dcmitype/StillImage" />
        <dc:title></dc:title>
      </cc:Work>
    </rdf:RDF>
  </metadata>
  <g
     inkscape:label="Capa 1"
     inkscape:groupmode="layer"
     id="layer1"
     transform="translate(-392.28125,-553.0625)">
    <path
       d="m 406.65625,555.9375 c -1.8777,0 -3.54265,0.91543 -4.59375,2.3125 -0.3729,-0.0943 -0.75195,-0.15625 -1.15625,-0.15625 -2.7807,0 -5.03125,2.25059 -5.03125,5.03125 0,0.0809 -0.004,0.16914 0,0.25 -2.0844,0.61094 -3.59375,2.49922 -3.59375,4.78125 0,2.78067 2.25055,5.03125 5.03125,5.03125 l 12.21875,0 c 3.176,0 5.75,-2.57402 5.75,-5.75 0,-2.15176 -1.21675,-3.98047 -2.96875,-4.96875 0.032,-0.24707 0.0937,-0.5207 0.0937,-0.78125 0,-3.17598 -2.574,-5.75 -5.75,-5.75 z m 3.5625,3.65625 c 0.23601,-5e-5 0.44497,0.0974 0.625,0.28125 0.35934,0.36704 0.36013,0.94465 0,1.3125 l -8.9375,9.15625 c -0.17999,0.18385 -0.42021,0.28123 -0.65625,0.28125 -0.23633,9e-5 -0.47591,-0.0971 -0.65625,-0.28125 L 396.6875,566.375 c -0.36106,-0.3688 -0.36007,-0.97596 0,-1.34375 0.35934,-0.36704 0.9208,-0.36818 1.28125,0 l 3.28125,3.3125 8.3125,-8.46875 c 0.17997,-0.18383 0.42024,-0.2812 0.65625,-0.28125 z"
       id="path3000"
       inkscape:connector-curvature="0" />
  </g>
</svg>
