<svg class="tc-image-edit-button tc-image-button" viewBox="0 0 128 128" width="22pt" height="22pt">
 <g>
  <g fill-rule="evenodd" id="svg_1" transform="rotate(60 62.030906677246094,69.37162780761719) ">
   <path d="m106.369,39.43251c10.16093,20.87943 6.57059,46.76498 -10.77102,64.1066c-21.86936,21.86936 -57.3266,21.86936 -79.19596,0c-21.86936,-21.86937 -21.86936,-57.3266 0,-79.19596c3.12419,-3.1242 8.18951,-3.1242 11.31371,0c3.12419,3.12419 3.12419,8.18951 0,11.3137c-15.62097,15.62098 -15.62097,40.94758 0,56.56855c15.62097,15.62097 40.94757,15.62097 56.56854,0c13.43566,-13.43566 15.31526,-34.05134 5.63879,-49.49591l-6.43857,12.26379c-2.05379,3.91193 -6.88995,5.41825 -10.80188,3.36446c-3.91192,-2.05379 -5.41824,-6.88995 -3.36445,-10.80187l15.11733,-28.79455c2.06115,-3.92595 6.92226,-5.42654 10.83771,-3.34553l28.87269,15.34546c3.90146,2.07357 5.38326,6.91731 3.30968,10.81877c-2.07358,3.90147 -6.91731,5.38327 -10.81878,3.30969l-10.26779,-5.4572zm-8.22191,-12.36764c-0.16719,-0.19071 -0.3359,-0.38056 -0.50612,-0.56953l0.96085,-0.29661l-0.45473,0.86614z" id="svg_2"/>
  </g>
  <path fill-rule="evenodd" id="svg_3" transform="rotate(-45 60.46991729736327,70.93371582031249) " d="m113.68312,62.93371l-8,0l0,0l0,16l8,0l0,-16zm8,0l2.77982,0c4.41622,0 8.00697,3.58172 8.00697,8c0,4.40928 -3.58484,8 -8.00697,8l-2.77982,0l0,-16zm-24,0l-85.20623,0c-0.15739,0 -0.31372,0.00454 -0.46887,0.01352l0,0c-0.13216,-0.00897 -0.26668,-0.01352 -0.40356,-0.01352c-8.10979,0 -23.13455,8 -23.13455,8c0,0 15.1993,8 23.13455,8c0.13525,0 0.26825,-0.00465 0.399,-0.01379c0.15665,0.00915 0.31451,0.01379 0.47343,0.01379l85.20623,0l0,-16l0,0z" stroke="#ffffff"/>
 </g>
</svg>