<svg class="tc-image-refresh-button tc-image-button" width="22pt" height="22pt" viewBox="0 0 128 128">
  <g transform="rotate(-90 62.0309066772461,69.37162017822266) " id="svg_1" fill-rule="evenodd">
   <path id="svg_2" d="m106.369002,39.432514c10.16093,20.879423 6.57059,46.764979 -10.771022,64.106591c-21.869361,21.869361 -57.326599,21.869361 -79.19596,0c-21.86936,-21.86936 -21.86936,-57.326599 0,-79.195959c3.124195,-3.124195 8.189514,-3.124195 11.313709,0c3.124194,3.124194 3.124194,8.189514 0,11.313708c-15.620972,15.620972 -15.620972,40.947571 0,56.568543c15.620971,15.620971 40.947571,15.620971 56.568542,0c13.435659,-13.435659 15.315255,-34.051335 5.638789,-49.495906l-6.438574,12.263793c-2.053786,3.911923 -6.889949,5.418241 -10.801872,3.364455c-3.911923,-2.053786 -5.418241,-6.889949 -3.364455,-10.801872l15.117332,-28.794551c2.061148,-3.925945 6.922259,-5.426535 10.837711,-3.345524l28.872684,15.345454c3.901468,2.073579 5.383264,6.917311 3.309685,10.818779c-2.073579,3.901468 -6.917311,5.383264 -10.818779,3.309685l-10.26779,-5.457196zm-8.221912,-12.367643c-0.167195,-0.190713 -0.335903,-0.380561 -0.506125,-0.56953l0.960854,-0.296608l-0.454729,0.866138z"/>
  </g>
  <g id="svg_10">
   <line id="svg_5" y2="46.147875" x2="64.120078" y1="86.595372" x1="64.120078" stroke-linecap="round" stroke-linejoin="round" stroke-dasharray="null" stroke-width="8" stroke="#000000"/>
   <line stroke="#000000" id="svg_6" y2="85.595372" x2="34.941733" y1="85.595372" x1="63.120078" stroke-linecap="round" stroke-linejoin="round" stroke-dasharray="null" stroke-width="8"/>
  </g>
</svg>