<svg class="tc-image-file tc-image-button" width="22pt" height="22pt" viewBox="-12 0 128 128">
 <g>
  <path stroke-opacity="0" id="svg_18" d="m8,125.96423l84,1l2,-95l-25,-25l-60,2l-1,117z" stroke-linecap="square" stroke-linejoin="round" stroke-dasharray="null" stroke-width="4" stroke="#000000"/>
  <g id="svg_1" fill-rule="nonzero">
   <path d="m98.96811,33.5l0.03189,0l0,89.49908c0,4.41879 -3.58089,8.00092 -7.99925,8.00092l-80.0015,0c-4.41787,0 -7.99925,-3.58231 -7.99925,-8.00092l0,-111.99816c0,-4.41879 3.58089,-8.00092 7.99925,-8.00092l57.00075,0l0,0.02018c2.15899,-0.09171 4.34822,0.6869 5.99825,2.33693l22.62693,22.62693c1.5265,1.5265 2.30776,3.5158 2.34293,5.51596l0,0zm-30.96811,-22.5l-57,0l0,112l80,0l0,-89.5l-14.99965,0c-4.41847,0 -8.00035,-3.57837 -8.00035,-8.00035l0,-14.49965z" id="svg_2" />
   <text stroke-opacity="0" fill="#ffffff" x="43.25633" y="54.82153" id="svg_9" font-size="24" font-family="Sans-serif" text-anchor="middle" xml:space="preserve" transform="matrix(3.5430981263433354,0,0,3.1603711640014467,-102.24349149601478,-63.365374592008266) " stroke="#000000" stroke-linejoin="round" stroke-linecap="round" font-weight="bold">R</text>
   <rect stroke="#000000" stroke-opacity="0" fill="#ffffff" x="19" y="39" width="64" height="8" rx="4" id="svg_3"/>
   <rect stroke-opacity="0" stroke="#000000" fill="#ffffff" x="19" y="23" width="40" height="8" rx="4" id="svg_8"/>
  </g>
 </g>
</svg>